<svg xmlns="http://www.w3.org/2000/svg" xmlns:xlink="http://www.w3.org/1999/xlink" width="2000" zoomAndPan="magnify" viewBox="0 0 1500 1499.999933" height="2000" preserveAspectRatio="xMidYMid meet" version="1.0"><defs><filter x="0%" y="0%" width="100%" height="100%" id="3901ccfbb6"><feColorMatrix values="0 0 0 0 1 0 0 0 0 1 0 0 0 0 1 0 0 0 1 0" color-interpolation-filters="sRGB"/></filter><mask id="df2a709ef1"><g filter="url(#3901ccfbb6)"><rect x="-150" width="1800" fill="#000000" y="-149.999993" height="1799.99992" fill-opacity="0.75"/></g></mask><clipPath id="b03cb56733"><path d="M 0.160156 4 L 1067 4 L 1067 1330.75 L 0.160156 1330.75 Z M 0.160156 4 " clip-rule="nonzero"/></clipPath><clipPath id="b98089430a"><rect x="0" width="1069" y="0" height="1334"/></clipPath></defs><path fill="#00bf63" d="M 416.210938 583.394531 C 508.121094 491.421875 508.121094 342.339844 416.210938 250.367188 L 166.425781 500.152344 C 28.496094 638.082031 28.496094 861.675781 166.425781 999.605469 L 665.9375 1499.117188 L 832.421875 1332.632812 L 541.042969 1041.253906 L 707.527344 874.773438 L 541.042969 708.226562 L 374.558594 874.773438 L 332.910156 833.121094 C 286.953125 787.164062 286.953125 712.59375 332.910156 666.636719 Z M 541.042969 708.226562 L 624.285156 624.984375 L 790.828125 458.503906 L 499.453125 167.125 L 665.9375 0.640625 L 1165.449219 500.152344 C 1303.375 638.082031 1303.375 861.675781 1165.449219 999.605469 L 1082.144531 1082.847656 L 915.660156 1249.390625 C 823.75 1157.417969 823.75 1008.335938 915.660156 916.363281 L 998.902344 833.121094 C 1044.921875 787.164062 1044.921875 712.59375 998.902344 666.636719 L 957.3125 624.984375 L 790.828125 791.46875 L 707.527344 874.773438 Z M 541.042969 708.226562 " fill-opacity="1" fill-rule="evenodd"/><g mask="url(#df2a709ef1)"><g transform="matrix(1, 0, 0, 1, 374, 78)"><g clip-path="url(#b98089430a)"><g clip-path="url(#b03cb56733)"><path fill="#5ce1e6" d="M 644.050781 409.71875 C 562.722656 491.046875 562.722656 622.929688 644.050781 704.304688 L 791.367188 556.988281 L 828.175781 593.839844 C 868.863281 634.484375 868.863281 700.425781 828.175781 741.113281 L 754.515625 814.769531 C 673.1875 896.101562 673.1875 1027.984375 754.515625 1109.316406 L 901.835938 962.042969 L 975.445312 888.382812 C 1097.464844 766.367188 1097.464844 568.542969 975.445312 446.523438 L 533.585938 4.664062 L 386.316406 151.933594 Z M 312.65625 520.183594 C 393.988281 438.851562 393.988281 306.921875 312.65625 225.59375 L 165.382812 372.863281 L 165.382812 372.910156 L 91.726562 446.523438 C -30.292969 568.542969 -30.292969 766.367188 91.726562 888.382812 L 533.585938 1330.289062 L 680.902344 1182.972656 L 423.121094 925.234375 C 504.496094 843.859375 504.496094 711.976562 423.121094 630.648438 L 275.851562 777.917969 L 238.996094 741.113281 C 198.355469 700.425781 198.355469 634.484375 238.996094 593.839844 Z M 312.65625 520.183594 " fill-opacity="1" fill-rule="evenodd"/></g></g></g></g></svg>