<svg xmlns="http://www.w3.org/2000/svg" xmlns:xlink="http://www.w3.org/1999/xlink" width="2000" zoomAndPan="magnify" viewBox="0 0 1500 1499.999933" height="2000" preserveAspectRatio="xMidYMid meet" version="1.0"><path fill="#007a3f" d="M 378.214844 583.3125 C 470.167969 491.296875 470.167969 342.140625 378.214844 250.125 L 211.589844 416.75 L 128.304688 500.03125 C -9.6875 638.027344 -9.6875 861.730469 128.304688 999.726562 L 628.058594 1499.480469 L 794.625 1332.914062 L 503.105469 1041.398438 L 669.671875 874.832031 L 503.105469 708.207031 L 336.542969 874.832031 L 294.871094 833.160156 C 248.890625 787.183594 248.890625 712.574219 294.871094 666.597656 Z M 503.105469 708.207031 L 586.390625 624.925781 L 753.015625 458.359375 L 461.496094 166.839844 L 628.058594 0.277344 L 1127.816406 500.03125 C 1265.808594 638.027344 1265.808594 861.730469 1127.816406 999.726562 L 1044.472656 1083.007812 L 877.90625 1249.632812 C 785.949219 1157.617188 785.949219 1008.460938 877.90625 916.441406 L 961.191406 833.160156 C 1007.230469 787.183594 1007.230469 712.574219 961.191406 666.597656 L 919.578125 624.925781 L 669.671875 874.832031 Z M 503.105469 708.207031 " fill-opacity="1" fill-rule="evenodd"/><path fill="#10bb82" d="M 986.859375 458.324219 C 894.835938 550.347656 894.835938 699.570312 986.859375 791.644531 L 1153.546875 624.960938 L 1195.191406 666.65625 C 1241.230469 712.644531 1241.230469 787.253906 1195.191406 833.292969 L 1111.847656 916.632812 C 1019.824219 1008.660156 1019.824219 1157.878906 1111.847656 1249.90625 L 1278.535156 1083.269531 L 1361.828125 999.925781 C 1499.886719 861.863281 1499.886719 638.03125 1361.828125 499.96875 L 861.871094 0.015625 L 695.234375 166.648438 Z M 611.894531 583.3125 C 703.917969 491.289062 703.917969 342.015625 611.894531 249.992188 L 445.257812 416.625 L 445.257812 416.679688 L 361.914062 499.96875 C 223.851562 638.03125 223.851562 861.863281 361.914062 999.925781 L 861.871094 1499.933594 L 1028.558594 1333.246094 L 736.882812 1041.625 C 828.957031 949.546875 828.957031 800.328125 736.882812 708.300781 L 570.246094 874.9375 L 528.550781 833.292969 C 482.5625 787.253906 482.5625 712.644531 528.550781 666.65625 Z M 611.894531 583.3125 " fill-opacity="1" fill-rule="evenodd"/></svg>