<svg xmlns="http://www.w3.org/2000/svg" xmlns:xlink="http://www.w3.org/1999/xlink" width="2000" zoomAndPan="magnify" viewBox="0 0 1500 1499.999933" height="2000" preserveAspectRatio="xMidYMid meet" version="1.0"><defs><g/><clipPath id="9a87810f81"><path d="M 0.480469 0 L 864 0 L 864 1500 L 0.480469 1500 Z M 0.480469 0 " clip-rule="nonzero"/></clipPath><clipPath id="f640ec8a6d"><rect x="0" width="864" y="0" height="1500"/></clipPath><clipPath id="201c6e71b5"><rect x="0" width="690" y="0" height="1500"/></clipPath><clipPath id="110b4afac6"><rect x="0" width="1416" y="0" height="1500"/></clipPath></defs><g transform="matrix(1, 0, 0, 1, 42, 0.000000000000112861)"><g clip-path="url(#110b4afac6)"><g clip-path="url(#9a87810f81)"><g transform="matrix(1, 0, 0, 1, -0.000000000000007105, 0.000000000000112861)"><g clip-path="url(#f640ec8a6d)"><g fill="#000000" fill-opacity="1"><g transform="translate(0.709494, 1496.968755)"><g><path d="M 65.640625 0 L 65.640625 -1483.78125 L 361.015625 -1483.78125 L 361.015625 -953.5 L 500.9375 -953.5 L 500.9375 -1483.78125 L 796.3125 -1483.78125 L 796.3125 0 L 500.9375 0 L 500.9375 -673.671875 L 361.015625 -673.671875 L 361.015625 0 Z M 65.640625 0 "/></g></g></g></g></g></g><g transform="matrix(1, 0, 0, 1, 726, 0.000000000000112861)"><g clip-path="url(#201c6e71b5)"><g fill="#5e17eb" fill-opacity="1"><g transform="translate(0.0760805, 1496.968755)"><g><path d="M 65.640625 0 L 65.640625 -1483.78125 L 659.84375 -1483.78125 L 659.84375 -1195.328125 L 364.46875 -1195.328125 L 364.46875 -958.671875 L 644.296875 -958.671875 L 644.296875 -673.671875 L 364.46875 -673.671875 L 364.46875 0 Z M 65.640625 0 "/></g></g></g></g></g></g></g></svg>